<svg height="512" viewBox="0 0 512 512" width="512" xmlns="http://www.w3.org/2000/svg"><g><g><path d="m424 80v16a32 32 0 0 1 -32 32v64h-176v-64a32 32 0 0 1 -32-32v-16a32 32 0 0 1 32-32h176a32 32 0 0 1 32 32z" fill="#ff9811"/><path d="m16 184h448v288h-448z" fill="#d8d7da"/><g fill="#57565c"><path d="m32 472h64v24h-64z"/><path d="m384 472h64v24h-64z"/><path d="m48 160h384v24h-384z"/></g><path d="m296 48v16a32 32 0 0 1 -32 32v64h-176v-64a32 32 0 0 1 -32-32v-16a32 32 0 0 1 32-32h176a32 32 0 0 1 32 32z" fill="#ffeb99"/><path d="m168 208h144v240h-144z" fill="#83d8f4"/><circle cx="272" cy="408" fill="#2d2d30" r="16"/><circle cx="240" cy="280" fill="#2d2d30" r="48"/><path d="m464 208h32v24h-32z" fill="#57565c"/></g><g><path d="m312 200h-144a8 8 0 0 0 -8 8v240a8 8 0 0 0 8 8h144a8 8 0 0 0 8-8v-240a8 8 0 0 0 -8-8zm-8 240h-128v-224h128z"/><path d="m272 384a24 24 0 1 0 24 24 24.028 24.028 0 0 0 -24-24zm0 32a8 8 0 1 1 8-8 8.009 8.009 0 0 1 -8 8z"/><path d="m240 336a56 56 0 1 0 -56-56 56.063 56.063 0 0 0 56 56zm-8-95.195v15.195a8 8 0 0 0 16 0v-15.195a40 40 0 1 1 -16 0z"/><path d="m496 200h-24v-16a8 8 0 0 0 -8-8h-24v-16a8 8 0 0 0 -8-8h-32v-16.8a40.069 40.069 0 0 0 32-39.2v-16a40.04 40.04 0 0 0 -40-40h-88.8a40.069 40.069 0 0 0 -39.2-32h-176a40.04 40.04 0 0 0 -40 40v16a40.069 40.069 0 0 0 32 39.2v48.8h-32a8 8 0 0 0 -8 8v16h-24a8 8 0 0 0 -8 8v288a8 8 0 0 0 8 8h8v16a8 8 0 0 0 8 8h64a8 8 0 0 0 8-8v-16h272v16a8 8 0 0 0 8 8h64a8 8 0 0 0 8-8v-16h8a8 8 0 0 0 8-8v-232h24a8 8 0 0 0 8-8v-24a8 8 0 0 0 -8-8zm-192-136v-8h88a24.032 24.032 0 0 1 24 24v16a24.032 24.032 0 0 1 -24 24 8 8 0 0 0 -8 8v24h-112v-48.8a40.069 40.069 0 0 0 32-39.2zm-240 0v-16a24.032 24.032 0 0 1 24-24h176a24.032 24.032 0 0 1 24 24v16a24.032 24.032 0 0 1 -24 24 8 8 0 0 0 -8 8v56h-160v-56a8 8 0 0 0 -8-8 24.032 24.032 0 0 1 -24-24zm-8 104h368v8h-368zm32 320h-48v-8h48zm352 0h-48v-8h48zm16-24h-432v-272h432zm32-240h-16v-8h16z"/></g></g></svg>