<svg height="512" viewBox="0 0 512 512" width="512" xmlns="http://www.w3.org/2000/svg"><g><g><path d="m64 16h224a40 40 0 0 1 40 40v352a0 0 0 0 1 0 0h-304a0 0 0 0 1 0 0v-352a40 40 0 0 1 40-40z" fill="#57565c"/><path d="m152 104h48a80 80 0 0 1 80 80v224a0 0 0 0 1 0 0h-208a0 0 0 0 1 0 0v-224a80 80 0 0 1 80-80z" fill="#d8d7da"/><path d="m40 408h64v24h-64z" fill="#d8d7da"/><path d="m56 432h32v64h-32z" fill="#d8d7da"/><path d="m40 408h64v24h-64z" fill="#cca400"/><path d="m56 432h32v64h-32z" fill="#d8d7da"/><path d="m248 408h64v24h-64z" fill="#cca400"/><path d="m264 432h32v64h-32z" fill="#d8d7da"/><circle cx="176" cy="208" fill="#898890" r="64"/><circle cx="176" cy="336" fill="#898890" r="40"/><circle cx="176" cy="336" fill="#91cc04" r="16"/><path d="m128 16h96v32h-96z" fill="#cca400"/><g fill="#d8d7da"><circle cx="424" cy="112" r="64"/><circle cx="424" cy="80" r="8"/><circle cx="424" cy="144" r="8"/><circle cx="456" cy="112" r="8"/><circle cx="392" cy="112" r="8"/></g><path d="m392 176h64v24h-64z" fill="#cca400"/><path d="m400 200h48v144h-48z" fill="#57565c"/><path d="m408 344h32v152h-32z" fill="#d8d7da"/></g><g><path d="m288 8h-224a48.051 48.051 0 0 0 -48 48v352a8 8 0 0 0 8 8h8v16a8 8 0 0 0 8 8h8v56a8 8 0 0 0 8 8h32a8 8 0 0 0 8-8v-56h8a8 8 0 0 0 8-8v-16h128v16a8 8 0 0 0 8 8h8v56a8 8 0 0 0 8 8h32a8 8 0 0 0 8-8v-56h8a8 8 0 0 0 8-8v-16h8a8 8 0 0 0 8-8v-352a48.051 48.051 0 0 0 -48-48zm-152 16h80v16h-80zm-56 464h-16v-48h16zm16-64h-48v-8h48zm-16-24v-216a72.083 72.083 0 0 1 72-72h48a72.083 72.083 0 0 1 72 72v216zm208 88h-16v-48h16zm16-64h-48v-8h48zm16-24h-32v-216a88.1 88.1 0 0 0 -88-88h-48a88.1 88.1 0 0 0 -88 88v216h-32v-344a32.042 32.042 0 0 1 32-32h56v24a8 8 0 0 0 8 8h96a8 8 0 0 0 8-8v-24h56a32.042 32.042 0 0 1 32 32z"/><path d="m176 136a72 72 0 1 0 72 72 72.081 72.081 0 0 0 -72-72zm0 128a56 56 0 0 1 -8-111.419v15.419a8 8 0 0 0 16 0v-15.419a56 56 0 0 1 -8 111.419z"/><path d="m176 288a48 48 0 1 0 48 48 48.053 48.053 0 0 0 -48-48zm0 80a32 32 0 1 1 32-32 32.036 32.036 0 0 1 -32 32z"/><path d="m176 312a24 24 0 1 0 24 24 24.028 24.028 0 0 0 -24-24zm0 32a8 8 0 1 1 8-8 8.009 8.009 0 0 1 -8 8z"/><path d="m496 112a72 72 0 1 0 -111.13 60.39 7.98 7.98 0 0 0 -.87 3.61v24a8 8 0 0 0 8 8v136a8 8 0 0 0 8 8v144a8 8 0 0 0 8 8h32a8 8 0 0 0 8-8v-144a8 8 0 0 0 8-8v-136a8 8 0 0 0 8-8v-24a7.98 7.98 0 0 0 -.87-3.61 71.99 71.99 0 0 0 32.87-60.39zm-64 376h-16v-136h16zm8-152h-32v-128h32zm8-144h-48v-8h48zm-24-24a56 56 0 1 1 56-56 56.062 56.062 0 0 1 -56 56z"/><circle cx="424" cy="80" r="8"/><circle cx="424" cy="144" r="8"/><circle cx="456" cy="112" r="8"/><circle cx="392" cy="112" r="8"/></g></g></svg>